<?xml version="1.0"?><svg width="2271.4375" height="1665.7122" xmlns="http://www.w3.org/2000/svg" xmlns:xlink="http://www.w3.org/1999/xlink">
 <title>Farm Background</title>
 <defs>
  <clipPath clipPathUnits="userSpaceOnUse" id="clipPath4234">
   <path d="m9815.270508,-213.291138c-11.655273,0 -21.0625,5.752167 -21.0625,12.875l0,830.03125c73.681641,-9.907227 153.852539,-15.0625 237.15625,-15.0625c343.817383,0 484.305664,44.117554 822.84375,235.71875c342.857422,194.045776 775.267578,461.424072 -891.40625,464.28125c-60.104492,0.103271 -116.484375,-9.398071 -168.59375,-25.937378l0,150.96875c0,7.122803 9.407227,12.843994 21.0625,12.843628l2229.34375,0c11.65625,0 21.03125,-5.720825 21.03125,-12.843628l0,-640.000122l0,-67.40625l0,-932.59375c0,-7.122833 -9.375,-12.875 -21.03125,-12.875l-2229.34375,0z" id="path4236" stroke-dashoffset="0" stroke-miterlimit="4" stroke-linejoin="round" stroke-linecap="round" stroke-width="3" fill="#9cf000"/>
  </clipPath>
  <clipPath clipPathUnits="userSpaceOnUse" id="clipPath4253">
   <path d="m10789.556641,-236.148254c-11.65625,0 -21.0625,5.752136 -21.0625,12.875l0,830.03125l0,169.968689l0,640c0,7.122925 9.40625,12.843994 21.0625,12.84375l2229.34375,0c11.655273,0 21.03125,-5.720947 21.03125,-12.84375l0,-640l0,-67.40625l0,-932.593689c0,-7.122864 -9.375977,-12.875 -21.03125,-12.875l-2229.34375,0z" id="path4255" stroke-dashoffset="0" stroke-miterlimit="4" stroke-linejoin="round" stroke-linecap="round" stroke-width="3" fill="url(#linearGradient4257)"/>
  </clipPath>
  <filter x="-0.191161" width="1.382322" y="-0.630123" height="2.260247" id="filter4635">
   <feGaussianBlur stdDeviation="40.507936" id="feGaussianBlur4637"/>
  </filter>
  <filter x="-0.248163" width="1.496326" y="-0.264348" height="1.528696" id="filter4962">
   <feGaussianBlur stdDeviation="57.904762" id="feGaussianBlur4964"/>
  </filter>
  <filter x="-0.130332" width="1.260664" y="-0.297911" height="1.595822" id="filter5183">
   <feGaussianBlur stdDeviation="24.825904" id="feGaussianBlur5185"/>
  </filter>
  <clipPath clipPathUnits="userSpaceOnUse" id="clipPath5381">
   <path d="m882.713013,173.899796c-48.512512,0 -90.277039,11.929932 -108.884583,29.029007c-4.26886,-0.294815 -8.609497,-0.457611 -13.019836,-0.457581c-57.891602,0 -104.884521,26.515869 -104.884521,59.185272c0,28.591492 35.995605,52.464539 83.786011,57.979889c14.848328,30.919403 81.280579,54.263397 160.924805,54.263428c90.548401,0 164.042603,-30.168274 164.042603,-67.343781l-0.117676,-1.082581c29.33374,-9.232056 48.520508,-24.501556 48.520508,-41.774597l-0.421509,-4.386108c-5.100586,-26.509369 -53.967407,-46.620651 -113.325806,-46.640656c-11.480103,-22.433395 -59.405518,-38.772324 -116.619995,-38.772293z" id="path5383" stroke-dashoffset="0" stroke-miterlimit="4" stroke-linejoin="round" stroke-linecap="round" stroke-width="5" fill="#fdfdfd" opacity="0.893333"/>
  </clipPath>
  <filter x="-0.095726" width="1.191452" y="-0.218809" height="1.437617" id="filter5445">
   <feGaussianBlur stdDeviation="18.234042" id="feGaussianBlur5447"/>
  </filter>
  <clipPath clipPathUnits="userSpaceOnUse" id="clipPath5495">
   <path id="path5497" d="m1916.998657,82.471237c-48.512451,0 -90.276978,11.929924 -108.884521,29.028992c-4.268921,-0.294823 -8.609497,-0.457611 -13.019897,-0.457565c-57.891602,0 -104.884399,26.515854 -104.884399,59.185242c0,28.591507 35.995483,52.464569 83.786011,57.979889c14.848267,30.919434 81.280518,54.263397 160.924805,54.263428c90.54834,0 164.042725,-30.168243 164.042725,-67.343781l-0.11792,-1.082565c29.33374,-9.23204 48.520508,-24.501541 48.520508,-41.774582l-0.421631,-4.386139c-5.100586,-26.509354 -53.967285,-46.620636 -113.325684,-46.640625c-11.480103,-22.433411 -59.405396,-38.772339 -116.619995,-38.772293z" stroke-dashoffset="0" stroke-miterlimit="4" stroke-linejoin="round" stroke-linecap="round" stroke-width="5" fill="#fdfdfd" opacity="0.893333"/>
  </clipPath>
  <filter x="-0.095832" width="1.191665" y="-0.219052" height="1.438104" id="filter5575">
   <feGaussianBlur stdDeviation="18.254341" id="feGaussianBlur5577"/>
  </filter>
  <clipPath clipPathUnits="userSpaceOnUse" id="clipPath5671">
   <rect id="rect5673" width="3815.5286" height="1722.9872" x="-59.71918" y="-42.65996" rx="35.341087" ry="21.597332" stroke-dashoffset="0" stroke-miterlimit="4" stroke-linejoin="round" stroke-linecap="round" stroke-width="3" fill="url(#linearGradient5675)" transform="translate(102, -10) translate(-7.5, 55) translate(-2.5, -22.5) translate(-7.5, -5)"/>
  </clipPath>
  <clipPath clipPathUnits="userSpaceOnUse" id="clipPath5677">
   <rect ry="20.374983" rx="33.340881" y="-30.42346" x="-51.16412" height="1625.4709" width="3599.5803" id="rect5679" stroke-dashoffset="0" stroke-miterlimit="4" stroke-linejoin="round" stroke-linecap="round" stroke-width="3" fill="url(#linearGradient5681)" transform="translate(102, -10) translate(-7.5, 55) translate(-2.5, -22.5) translate(-7.5, -5)"/>
  </clipPath>
  <symbol xmlns:xlink="http://www.w3.org/1999/xlink" id="svg_79">
   <metadata id="svg_42">image/svg+xmlimage/svg+xml</metadata>
   <g id="svg_23" transform="translate(503, 67)">
    <g id="svg_24">
     <path id="svg_41" d="m-353.90213,74.19165l63.061493,0.906776l-0.397034,84.592888l-61.212341,-0.169449l-1.452118,-85.330215z" stroke-miterlimit="4" stroke-linecap="square" stroke-width="0.5" fill="#0f0714"/>
     <path id="svg_40" d="m-348.39801,159.728622l-137.60199,-0.551895l-0.765076,-76l-16.234924,-0.176727l0,-7l126.765076,-65.53018l0.88147,-32.46982l-4.646545,0l-1,-1l49,-20.881458l17.234924,2.823269l1.765076,-7.941811l-8,-2l-3,-6l31,-8l30,13l-2,4l-8.588348,-0.58836l0,19.295259l20.999985,4.058191l0.588364,-7.765091l-8,-4l-2,-4l23,-9l30,14l0,4l-9,0l0.411636,16.7069l8.646561,2.64655l53.234909,20.82328l-1.293106,1.82327l-7,-2l-3.117462,0.35237l0.563187,20.73207l112.965927,48.957239l0,6.781593l-10.058193,-0.588364l2.234913,74.588364l-89.799126,4.33699l-144.759003,-1.79686l-0.125336,-83.859711l-55.361938,0.439186l3.059021,81.785744z" stroke-width="1px" fill-rule="evenodd" fill="#bd3235"/>
     <path id="svg_39" d="m-258.311798,-19.40976l-73.978912,-27.55965l122.220078,31.36305l52.54129,21.500801l-100.782455,-25.3042z" stroke-width="1px" stroke="#be845f" fill-rule="evenodd" fill="#9d6451"/>
     <path id="svg_38" d="m-266.98465,-16.833019l8.284668,2.644519l88.132736,20.04547l0.551895,4.47605l-96.399384,-23.12113l-0.569916,-4.044909z" stroke-width="0.712139px" fill-rule="evenodd" fill="#511419"/>
     <path d="m-284.125,-33.625l-0.455933,-17.870941l-29.419067,0.495941l-0.25,8.25l30.125,9.125zm17.625,21.125l95.3797,22.13676l0.301743,18.24141l-95.362473,-17.05058l-0.31897,-23.32759zm11.75,-22.5l0.25,8l27.5,7.5l-0.25,-15.75l-27.5,0.25z" id="svg_37" stroke-width="1px" stroke="#a4382e" fill-rule="evenodd" fill="#bf3032"/>
     <path id="svg_36" d="m-281.5,-56.5l-43.25,1.25l29.75,-11.25l29.75,13.75l-16.321777,-3.761478l-13.178223,-9.988522" stroke-width="1px" stroke="#b27062" fill-rule="evenodd" fill="#5c454f"/>
     <path id="svg_35" d="m-224,-40l-40,1.5l28.5,-9.75l25.75,12.25l-14.321777,-4.011478l-12.428223,-7.738522" stroke-width="1px" stroke="#b27062" fill-rule="evenodd" fill="#5c454f"/>
     <path id="svg_34" d="m-226.75,-36.75l0.25,17.25l6.75,2.25l0,-17.25l-7,-2.25z" stroke-width="1px" stroke="#e75c49" fill-rule="evenodd" fill="#f6f8ee"/>
     <path id="svg_33" d="m-282.75,-52.75l0.25,19.25l6.75,2.25l0,-20l-7,-1.5z" stroke-width="1px" stroke="#e75c49" fill-rule="evenodd" fill="#f6f8ee"/>
     <path id="svg_32" d="m-288.953552,11.38512l15.253571,0.176379l-1.640472,4.588981l125.773209,53.956491l0.551895,9.976051l-139.211945,-61.527054m15.386108,-28.81747l-32.278107,-13.91295l-70.36496,1.532471l42.162506,-19.105122l60.714142,21.450041l-1.639496,3.770109l2.284058,3.597631l-0.878143,2.66782z" stroke-width="0.712139px" fill-rule="evenodd" fill="#461624"/>
     <path id="svg_31" d="m-273.410431,9.28955l138.976685,61.002748l80.903027,9.13401l-0.198261,5.241409l-81.362465,-8.550598l-137.961258,-60.542939l-0.357727,-6.28463z" stroke-width="1px" stroke="#a4382e" fill-rule="evenodd" fill="#e23e45"/>
     <path id="svg_30" d="m-133.070999,70.769501l-138.964005,-60.715401l103.653,19.869101l115.315903,49.793703l-80.004898,-8.947403l0,0z" stroke-width="1px" stroke="#be845f" fill-rule="evenodd" fill="#9d6451"/>
     <path id="svg_29" d="m-261.406311,-16.315229l-71.385773,-26.132681l-0.175629,-4.987919l71.992615,27.689869l-0.431213,3.430731z" stroke-width="1px" stroke="#be845f" fill-rule="evenodd" fill="#633c35"/>
     <path id="svg_28" d="m-156.295837,9.61131l-104.04007,-25.34927l-0.234924,-4.4451l104.706207,26.36364l-0.431213,3.43073z" stroke-width="1px" stroke="#7f2524" fill-rule="evenodd" fill="#ae2d32"/>
     <path id="svg_27" d="m-378.426605,-23.719139l44.943665,-22.85405l0.908478,5.069981l-41.537262,19.983578l-4.31488,-2.199509z" stroke-width="1px" stroke="#7f2524" fill-rule="evenodd" fill="#ae2d32"/>
     <path id="svg_26" d="m-322.746918,71.839043l-1.753082,-62.839043l-11.5,31.5l12.548889,29.926064l-23.548889,0.247704m56.836884,8.326233l1.163116,79.5m-62.120636,-78.920624l53.006592,-1.16774m-125.32373,53.588364l3.937775,4l0.5,5.673767m219.187408,-1.111542l-0.687408,-5.062225l-5,-3.937027m-20.147003,-5.216171l29.454132,-0.35511l0.174728,5.127129l-28.589462,0.037796l-0.194168,-6.315559m-211.53511,16.658943l0.173767,-5.768295l-3.557922,-3.952744l-3,0.221039l0.221039,-4.5l28.976471,0.509338l-0.138824,4.095856l-26.030365,-0.417786m26.286407,-8.714729l-29.531464,-0.781479l-0.29895,-28.466377l16.236725,0.278969l14.562958,0.5l-0.969269,28.468887zm-70.684357,-47.580856l1.090668,85.600594m-3.536621,-85.88723l6.64566,-0.155434m183.890961,-66.949753l0,62l-12,-30l12,-32m1.353455,0.29418l-25.353455,0.70582l12.147095,31.02964l-10.932495,30.822456m-107.902008,22.839096l0.004303,28.721046m71.683105,-42.412239l-38.5,1l2.5,75.058197l17.5,-36.058197l18.5,36.558197m134.000763,-25.807816l4.015305,4.661041l-0.140503,5.275986m7.109329,-50.503426l12.956375,-0.214706l0.683914,31.673782l-28.625183,0.062218l-1,-31m-165,65.352921l37.5,-0.5l-2,-75.058197l-18,37l-16.5,-35.5m229.5,81.496216l-0.5,-67.496216l-27.558334,-0.596603l-0.773743,68.424881m125.332077,-5.828278l-2,-74m-206.25,-70l137.75,60m-53.5,-72l0,23.75m40,54.25l0.167923,84.660355m-22.167923,-158.660355l0.25,23m-35.75,-30.25l0.5,24.25m-20.5,-29.5l-0.5,25.5m-19.75,-30l-0.25,26m-16.75,-52.25l39.25,-1.25l10.75,2.5m-110.5,-17l42.25,-2.25l15,4.25m-83.323822,59.64655l2.044769,63.05289l10.779053,-30.69944l-12,-31l25.353455,-0.76455m2.596863,-1.33816l2.090881,62.983417l23.993805,-0.73362m24.876648,-86.677267l0,25.70691m42.470886,81.528546l17.102356,-0.521286l1.015106,32.021286m-45,-43.705276l-17,39l-19,-38.5l37.5,0l1.911636,77.823273l-38.413376,0.911804l19.505524,-40.501045l17.496216,39.265968m-120,-177.5l-0.326233,35.11585l-128.356812,67.620478" stroke-miterlimit="4" stroke-width="3" stroke="#f6f7ee" fill-rule="evenodd" fill="none"/>
     <path id="svg_25" d="m-406.685883,77.359627c123.787567,-0.312584 170.98938,-2.500748 170.98938,-2.500748" stroke-miterlimit="4" stroke-width="2" stroke="#af6a65" fill-rule="evenodd" fill="none"/>
    </g>
   </g>
   <g id="svg_22" transform="translate(503, 67)"/>
  </symbol>
  <linearGradient id="linearGradient4641">
   <stop offset="0" id="stop4643" stop-color="#fcaf3e"/>
   <stop offset="1" id="stop4645" stop-color="#ffce86"/>
  </linearGradient>
  <linearGradient id="linearGradient4368">
   <stop id="stop4370" offset="0" stop-color="#69d007"/>
   <stop id="stop4372" offset="1" stop-opacity="0" stop-color="#4e9a06"/>
  </linearGradient>
  <linearGradient id="linearGradient4336">
   <stop offset="0" id="stop4338" stop-color="#458905"/>
   <stop offset="1" id="stop4340" stop-opacity="0" stop-color="#4e9a06"/>
  </linearGradient>
  <linearGradient id="linearGradient4328">
   <stop offset="0" id="stop4330" stop-color="#8f5902"/>
   <stop offset="1" id="stop4332" stop-color="#724701"/>
  </linearGradient>
  <linearGradient id="linearGradient4238">
   <stop offset="0" id="stop4240" stop-color="#55a800"/>
   <stop offset="1" id="stop4242" stop-color="#74e400"/>
  </linearGradient>
  <linearGradient id="linearGradient4191">
   <stop offset="0" id="stop4193" stop-color="#007900"/>
   <stop offset="1" id="stop4195" stop-opacity="0" stop-color="#008400"/>
  </linearGradient>
  <linearGradient id="linearGradient4180">
   <stop offset="0" id="stop4182" stop-color="#00a400"/>
   <stop offset="1" id="stop4184" stop-opacity="0" stop-color="#00a400"/>
  </linearGradient>
  <linearGradient id="linearGradient4103">
   <stop offset="0" id="stop4105" stop-color="#00acf4"/>
   <stop offset="1" id="stop4107" stop-color="#a6e5ff"/>
  </linearGradient>
  <linearGradient xlink:href="#linearGradient4103" id="linearGradient4109" x1="0.474214" y1="-0.189418" x2="0.474214" y2="1.000097"/>
  <linearGradient xlink:href="#linearGradient4191" id="linearGradient4200" x1="0.492076" y1="-0.488398" x2="0.490848" y2="0.524211"/>
  <linearGradient xlink:href="#linearGradient4103" id="linearGradient4257" x1="0.474216" y1="-0.116636" x2="0.474216" y2="0.615842"/>
  <linearGradient xlink:href="#linearGradient4180" id="linearGradient4261" x1="0.357287" y1="-0.120598" x2="0.357287" y2="0.581632"/>
  <linearGradient xlink:href="#linearGradient4238" id="linearGradient4263" x1="0.5" y1="-0.070132" x2="0.510673" y2="1.425902"/>
  <linearGradient xlink:href="#linearGradient4336" id="linearGradient4382" x1="0.762445" y1="Infinity" x2="0.65567" y2="Infinity"/>
  <linearGradient xlink:href="#linearGradient4368" id="linearGradient4384" x1="0.43915" y1="-Infinity" x2="0.552103" y2="-Infinity"/>
  <linearGradient xlink:href="#linearGradient4368" id="linearGradient4386" x1="0.109724" y1="-Infinity" x2="0.683021" y2="Infinity"/>
  <linearGradient xlink:href="#linearGradient4336" id="linearGradient4388" x1="0.037881" y1="Infinity" x2="0.659074" y2="-Infinity"/>
  <linearGradient xlink:href="#linearGradient4328" id="linearGradient4390" x1="0.5" y1="0.5" x2="0.999999" y2="0.5"/>
  <radialGradient xlink:href="#linearGradient4641" id="radialGradient4647" cx="-640" cy="-27.637817" fx="-640" fy="-27.637817" r="284.19949" gradientTransform="matrix(1.38966, 0.707173, -0.555426, 1.09147, 318.534, 472.619)" gradientUnits="userSpaceOnUse"/>
  <linearGradient xlink:href="#linearGradient4103" id="linearGradient5675" x1="0.474214" y1="-0.189418" x2="0.474214" y2="1.000097"/>
  <linearGradient xlink:href="#linearGradient4103" id="linearGradient5681" x1="0.474214" y1="-0.189418" x2="0.474214" y2="1.000097"/>
 </defs>
 <metadata id="metadata7">image/svg+xmlSummer LandscapeCarlos AsmatsummergreenlandscapetreecloudsA simple summer landscape featuring green grass, a blue sky and white clouds.</metadata>
 <g>
  <title>Layer 1</title>
  <g id="layer2" display="inline" opacity="0.9">
   <title>shay</title>
   <rect id="rect2160" width="2271.4285" height="1190.743523" x="0.00891" y="-138.998816" rx="21.03896" ry="12.857142" stroke-dashoffset="0" stroke-miterlimit="4" stroke-linejoin="round" stroke-linecap="round" stroke-width="3" fill="url(#linearGradient4109)"/>
   <path d="m1211.439941,792.974976c-215.169922,0 -379.223938,39.75 -506.189941,100.309021c-139.692993,-56.797974 -270.223999,-73.752991 -468.093994,-73.752991c-83.303009,0 -163.475403,5.984009 -237.156006,17.486023l0,940.28302c0,8.269897 9.4069,14.909912 21.0625,14.909912l2229.347412,0c11.650146,0 21.030029,-6.640015 21.030029,-14.909912l0,-821.219055c-167.75,1.080017 -334.179932,3.679993 -499.129883,7.799988c-168.040039,-74.162964 -304.030029,-170.906006 -560.870117,-170.906006z" id="path4202" stroke-dashoffset="0" stroke-miterlimit="4" stroke-linejoin="round" stroke-linecap="round" stroke-width="3" fill="url(#linearGradient4263)"/>
   <path d="m1952.51001,1034.319946c273.649902,59.650024 3923.449951,496.650024 -745.719971,436.170044c-4661.069824,-60.48999 -787.932007,-363.809937 -699.995056,-442.800049c140,-125.761963 353.325012,-227.203918 697.144958,-227.203918c343.810059,0 471.070068,173.35498 748.570068,233.833923z" id="path4113" clip-path="url(#clipPath4234)" stroke-dashoffset="0" stroke-miterlimit="4" stroke-linejoin="round" stroke-linecap="round" stroke-width="3" fill="url(#linearGradient4200)"/>
   <path d="m1052.51001,1100.660034c342.859985,225.27002 775.23999,535.669922 -891.429993,538.97998c-343.815979,0.689941 -565.515015,-362.969971 -565.713989,-538.97998c-0.190002,-171.829041 290.468994,-273.639038 634.286011,-273.639038c343.817017,0 484.319031,51.210999 822.858093,273.639038l-0.000122,0z" id="path4111" clip-path="url(#clipPath4253)" stroke-dashoffset="0" stroke-miterlimit="4" stroke-linejoin="round" stroke-linecap="round" stroke-width="3" fill="url(#linearGradient4261)"/>
  </g>
  <g id="layer1" display="inline">
   <path d="m898.435791,1065.328369c67.916931,0 126.386719,11.929932 152.437012,29.029053c5.97644,-0.2948 12.053223,-0.457642 18.227783,-0.457642c81.047485,0 146.837036,26.515869 146.837036,59.185303c0,28.591431 -50.393433,52.464478 -117.299438,57.979858c-20.787598,30.919434 -113.79187,54.263428 -225.292908,54.263428c-126.766663,0 -229.657715,-30.168213 -229.657715,-67.34375l0.164795,-1.08252c-41.066833,-9.232056 -67.928223,-24.501587 -67.928223,-41.774658l0.59021,-4.386108c7.140808,-26.509399 75.553711,-46.620605 158.654785,-46.640625c16.072021,-22.433472 83.166992,-38.772339 163.266663,-38.772339z" id="path5189" filter="url(#filter5183)" stroke-dashoffset="0" stroke-miterlimit="4" stroke-linejoin="round" stroke-linecap="round" stroke-width="5" fill="#000000" opacity="0.031111"/>
   <path d="m351.181458,146.208221a176.687271,165.86969 0 1 1 -0.65332,-14.250671" id="path4649" clip-path="url(#clipPath5677)" filter="url(#filter4962)" stroke-dashoffset="0" stroke-miterlimit="4" stroke-linejoin="round" stroke-linecap="round" stroke-width="8.398963" fill="#f57900" opacity="0.288889"/>
   <g id="g4374" transform="matrix(0.545965, 0, 0, 0.545965, 940.019, 86.9666)">
    <path id="path4314" d="m-817.700684,785.946716c-94.875244,0 -178.407715,43.143188 -226.937378,108.40625c-152.312256,26.532349 -267.34375,145.771301 -267.34375,288.749939c0,76.827881 33.231445,146.791748 87.59375,199.21875c-1.229736,10.579712 -1.875,21.337158 -1.875,32.21875c0,164.022949 143.360107,297.125 319.999878,297.125c87.112549,0 166.122803,-32.382813 223.84375,-84.875c39.230469,17.85498 82.358643,27.75 127.59375,27.75c181.37149,0 328.562561,-158.746826 328.562561,-354.3125c0,-195.565674 -147.191071,-354.281189 -328.562561,-354.281189c-2.30249,0 -4.61499,0.042847 -6.90625,0.09375c-37.267334,-93.218994 -137.83252,-160.09375 -255.96875,-160.09375z" stroke-dashoffset="0" stroke-miterlimit="4" stroke-linejoin="round" stroke-linecap="round" stroke-width="3" fill="#4e9a06"/>
    <path d="m-226.267654,1300.241211a328.571442,354.285706 0 1 1 -657.14299,0a328.571442,354.285706 0 1 1 657.14299,0z" id="path4305" stroke-dashoffset="0" stroke-miterlimit="4" stroke-linejoin="round" stroke-linecap="round" stroke-width="3" fill="url(#linearGradient4382)"/>
    <path d="m-546.2677,1025.955566a271.428558,240 0 1 1 -542.857056,0a271.428558,240 0 1 1 542.857056,0z" id="path4301" stroke-dashoffset="0" stroke-miterlimit="4" stroke-linejoin="round" stroke-linecap="round" stroke-width="3" fill="url(#linearGradient4384)"/>
    <path d="m-649.124939,1183.098389a331.428558,294.285706 0 1 1 -662.856873,0a331.428558,294.285706 0 1 1 662.856873,0z" id="path4303" stroke-dashoffset="0" stroke-miterlimit="4" stroke-linejoin="round" stroke-linecap="round" stroke-width="3" fill="url(#linearGradient4386)"/>
    <path d="m-586.267578,1414.526978a320,297.142853 0 1 1 -639.999878,0a320,297.142853 0 1 1 639.999878,0z" id="path4307" stroke-dashoffset="0" stroke-miterlimit="4" stroke-linejoin="round" stroke-linecap="round" stroke-width="3" fill="url(#linearGradient4388)" opacity="0.311111"/>
    <path id="rect4323" d="m-921.798096,1537.755371c167.685303,278.802124 150.512695,-74.751221 238.395996,44.446777c-61.619385,349.512817 50.507568,480.83252 12.121826,848.528076c-123.23877,44.446777 -110.106689,-46.467041 -335.370605,-24.243896c-7.071289,-341.431396 82.83252,-626.294189 84.852783,-868.730957z" stroke-dashoffset="0" stroke-miterlimit="4" stroke-linejoin="round" stroke-linecap="round" stroke-width="3" fill="url(#linearGradient4390)"/>
   </g>
   <path id="path7786" d="m262.134399,1320.307373c-4.183411,1.426636 -5.229797,4.703003 -8.74231,9.602417c-4.570862,8.407837 -13.829285,33.589233 -12.787598,37.706787c1.380615,7.417358 13.011841,-34.612305 21.529907,-47.309204zm-78.536438,18.334839c9.92865,30.301758 10.86322,32.571777 18.606567,32.132202c-1.64447,-5.591309 -6.365417,-10.145142 -9.678284,-15.45813c-3.531128,-5.663696 -5.450562,-16.255127 -8.928284,-16.674072zm34.898926,1.104858c-11.30011,19.798462 -12.507019,26.928955 -10.603638,29.158569c3.480225,2.152222 2.72052,-3.465332 10.603638,-29.158569zm21.140747,4.245605c-2.781921,-0.759644 -4.808533,6.097778 -5.914307,11.706665c-2.823303,14.321167 -2.855286,12.254395 -0.952148,13.46814c2.62384,1.67334 2.607361,-12.939453 6.866455,-25.174805zm18.712036,-1.315063c-2.911804,0.139771 -4.426392,5.941162 -6.468201,11.296021c-2.050659,10.210938 -8.019348,16.553711 -3.809814,16.94165c4.185181,0.38562 7.080688,-16.118286 10.278015,-28.237671zm-31.208374,3.927856c-9.182617,16.418457 -11.146606,21.454346 -7.458313,22.132324c2.37793,0.437012 2.565613,-3.574951 5.280457,-10.320435c1.748657,-4.345093 3.928894,-8.152466 2.177856,-11.81189z" stroke-dashoffset="0" stroke-miterlimit="4" stroke-linejoin="round" stroke-linecap="round" stroke-width="3" fill="#1e9e00" opacity="0.698"/>
   <g id="g7640">
    <path d="m376.643066,1537.785156a30.00001,16.285721 0 1 1 -59.999969,0a30.00001,16.285721 0 1 1 59.999969,0z" id="path4271" stroke-dashoffset="0" stroke-miterlimit="4" stroke-linejoin="round" stroke-linecap="round" stroke-width="3" fill="#ad7fa8"/>
    <path id="path5606" d="m257.593445,1378.355957c-1.718872,1.157837 -5.959961,0.098755 -8.367065,0.481323c-2.486603,0.395142 -5.170685,3.605713 -7.69043,3.136353c-2.439178,-0.454468 -3.998779,-4.030396 -5.780121,-5.154053c-1.840271,-1.161011 -5.577148,-0.928223 -6.378555,-2.485229c-0.775772,-1.50708 2.537735,-3.949097 3.203445,-5.474731c0.687759,-1.575928 -1.082916,-4.22937 0.770737,-5.353638c1.794434,-1.088135 5.754715,0.424072 8.131027,0.003296c2.454956,-0.434814 5.074554,-3.048462 7.613708,-2.661621c2.457825,0.37439 4.078827,3.056152 5.880371,4.134644c1.861206,1.114014 6.874481,1.442627 7.726563,2.959839c0.824768,1.46875 -4.220306,3.188599 -4.728546,4.730713c-0.525055,1.59314 1.394501,4.487183 -0.381134,5.683105z" stroke-dashoffset="0" stroke-miterlimit="4" stroke-linejoin="round" stroke-linecap="round" stroke-width="3" fill="#ce5c00"/>
    <path id="path5604" d="m208.778793,1414.913574c-2.155655,1.178589 -6.272186,1.393311 -9.33313,1.806519c-3.060852,0.413086 -7.54245,2.394775 -10.555923,1.910767c-3.01355,-0.484131 -5.75885,-2.868652 -7.953522,-4.004517c-2.194565,-1.135864 -6.17749,-2.290161 -7.106339,-3.845337c-0.928864,-1.555176 2.057236,-3.950317 2.785904,-5.485352c0.728668,-1.535034 -0.11116,-4.534668 2.136566,-5.641357c2.247833,-1.106689 7.788361,-0.42627 10.710388,-0.921143c2.922028,-0.494995 5.752716,-2.212402 8.791229,-1.810425c3.038422,0.401855 5.768921,2.818726 7.95343,4.004395c2.184616,1.185669 7.909775,1.769531 8.900269,3.285522c0.990494,1.515991 -2.092148,4.013184 -2.910095,5.526611c-0.817978,1.513428 -1.263123,3.995605 -3.418777,5.174316z" stroke-dashoffset="0" stroke-miterlimit="4" stroke-linejoin="round" stroke-linecap="round" stroke-width="3" fill="#f57900"/>
    <path d="m292.825256,1386.087646c-1.712097,0.917603 -6.621155,-0.452271 -8.984833,0.037109c-2.363678,0.48938 -7.218292,3.115479 -9.808502,2.811523c-2.590302,-0.303955 -3.896851,-2.716309 -6.073944,-3.47644c-2.177094,-0.76001 -6.03891,-0.656494 -7.051422,-1.791504c-1.012451,-1.13501 1.336243,-3.791016 1.944794,-4.9729c0.608551,-1.181763 -1.158508,-3.34314 0.533539,-4.321655c1.692078,-0.978516 6.828918,-0.780518 9.348083,-1.105957c2.519165,-0.325317 5.351166,-1.883667 7.988037,-1.682129c2.636841,0.20166 5.213013,2.158325 7.403259,2.872681c2.190338,0.714355 6.37854,1.506592 7.542572,2.631592c1.164063,1.125 -1.746002,2.41687 -2.035309,3.642212c-0.289307,1.225464 0.905823,4.437866 -0.806274,5.355469z" id="path5600" stroke-dashoffset="0" stroke-miterlimit="4" stroke-linejoin="round" stroke-linecap="round" stroke-width="3" fill="#fcc916"/>
    <path d="m244.167664,1398.761475c-1.922394,1.341309 -7.361511,-0.040283 -10.083374,0.635254c-2.721878,0.675659 -7.453979,3.921021 -10.393356,3.53833c-2.939484,-0.382568 -4.626953,-3.643921 -7.030945,-4.752319c-2.403976,-1.108398 -7.087784,-1.251465 -8.197128,-2.897949c-1.109329,-1.646484 1.762497,-4.970825 2.37616,-6.693726c0.613678,-1.7229 -1.268524,-4.788574 0.639633,-6.184448c1.908066,-1.395874 7.504745,-1.064209 10.337601,-1.591919c2.832855,-0.527588 6.149307,-2.818237 9.118927,-2.527466c2.969696,0.290649 5.547012,3.144165 7.961548,4.211914c2.414612,1.067749 7.325317,2.010986 8.540955,3.64978c1.215698,1.638916 -2.050323,3.741211 -2.439514,5.50293c-0.389221,1.761597 1.091858,5.768311 -0.830505,7.109619z" id="path5598" stroke-dashoffset="0" stroke-miterlimit="4" stroke-linejoin="round" stroke-linecap="round" stroke-width="3" fill="#ad7fa8"/>
    <path d="m238.062714,1434.48584c-2.743927,1.703491 -9.514618,0.145264 -13.357193,0.70813c-3.969772,0.581421 -8.254562,5.305664 -12.277267,4.61499c-3.893799,-0.668701 -6.383682,-5.93042 -9.227448,-7.583984c-2.937866,-1.708252 -8.903442,-1.365723 -10.1828,-3.656738c-1.238464,-2.217651 4.051239,-5.810913 5.114014,-8.055664c1.098053,-2.319092 -1.72879,-6.223389 1.23053,-7.877563c2.864532,-1.601318 9.186768,0.623901 12.980377,0.004639c3.919144,-0.639648 8.101089,-4.485474 12.154633,-3.91626c3.923691,0.550903 6.511475,4.496948 9.387527,6.08374c2.971207,1.639282 10.974594,2.122803 12.334885,4.355347c1.316559,2.161133 -6.737488,4.691772 -7.548828,6.960938c-0.838242,2.344238 2.226318,6.602539 -0.608429,8.362427z" id="path5594" stroke-dashoffset="0" stroke-miterlimit="4" stroke-linejoin="round" stroke-linecap="round" stroke-width="3" fill="#ce5c00"/>
    <path id="path5592" d="m269.948059,1423.047119c-2.26947,1.341309 -8.691162,-0.040283 -11.904663,0.635254c-3.213501,0.675659 -8.800232,3.921021 -12.27063,3.53833c-3.470398,-0.382568 -5.462585,-3.643921 -8.300888,-4.752319c-2.838196,-1.108398 -8.368011,-1.251465 -9.677719,-2.897949c-1.309601,-1.646484 2.080826,-4.970825 2.805344,-6.693726c0.724625,-1.7229 -1.49765,-4.788574 0.755157,-6.184448c2.252808,-1.395874 8.860306,-1.064209 12.20491,-1.591919c3.344543,-0.527588 7.259918,-2.818237 10.766022,-2.527466c3.506012,0.290649 6.548859,3.144165 9.399597,4.211914c2.850616,1.067749 8.648468,2.010986 10.083649,3.64978c1.435181,1.638916 -2.420654,3.741211 -2.880249,5.50293c-0.459534,1.761597 1.289063,5.768311 -0.98053,7.109619z" stroke-dashoffset="0" stroke-miterlimit="4" stroke-linejoin="round" stroke-linecap="round" stroke-width="3" fill="#3465a4"/>
    <path id="path5590" d="m293.139404,1469.317871c-2.717224,1.482788 -10.508362,-0.730957 -14.259583,0.059814c-3.751343,0.790771 -11.456116,5.03479 -15.566956,4.543579c-4.11087,-0.491211 -6.18457,-4.389771 -9.639801,-5.618042c-3.455109,-1.228149 -9.584076,-1.060791 -11.19101,-2.895142c-1.606964,-1.834229 2.120728,-6.126343 3.086548,-8.036255c0.96579,-1.90979 -1.838776,-5.402466 0.846741,-6.983765c2.685425,-1.581299 10.837891,-1.261353 14.835999,-1.787231c3.998077,-0.525879 8.492676,-3.044067 12.677612,-2.718384c4.184875,0.325806 8.273438,3.487793 11.749664,4.642212c3.476105,1.154297 10.123169,2.434814 11.970612,4.252686c1.847443,1.817993 -2.771179,3.90564 -3.230286,5.885986c-0.459167,1.980347 1.437744,7.171631 -1.279541,8.654541z" stroke-dashoffset="0" stroke-miterlimit="4" stroke-linejoin="round" stroke-linecap="round" stroke-width="3" fill="#fcaf3e"/>
    <path id="path5586" d="m341.512268,1492.537476c-3.256653,2.093384 -11.291931,0.178589 -15.852448,0.870239c-4.711182,0.714478 -9.796509,6.519897 -14.570496,5.671143c-4.621307,-0.821655 -7.576141,-7.28772 -10.951141,-9.31958c-3.486633,-2.099121 -10.566589,-1.678223 -12.08493,-4.49353c-1.469818,-2.72522 4.808014,-7.140869 6.069305,-9.899414c1.30304,-2.849731 -2.051727,-7.647583 1.460266,-9.680298c3.39975,-1.967773 10.902985,0.766724 15.405212,0.005737c4.651245,-0.786011 9.61438,-5.511963 14.42511,-4.8125c4.656616,0.677002 7.727844,5.526123 11.141113,7.476074c3.526245,2.014282 13.024506,2.608521 14.638855,5.352051c1.562653,2.65564 -7.99585,5.765503 -8.958771,8.553955c-0.994812,2.880737 2.642059,8.113525 -0.722076,10.276123z" stroke-dashoffset="0" stroke-miterlimit="4" stroke-linejoin="round" stroke-linecap="round" stroke-width="3" fill="#cc0000"/>
    <path d="m295.176544,1529.206177c-3.167816,1.746582 -12.250763,-0.86084 -16.624176,0.070557c-4.373352,0.931396 -13.355774,5.93042 -18.148285,5.351807c-4.792511,-0.578613 -7.210083,-5.170654 -11.238129,-6.61731c-4.028198,-1.446777 -11.173386,-1.249634 -13.046814,-3.410278c-1.873276,-2.160522 2.472412,-7.216187 3.598358,-9.46582c1.125885,-2.249634 -2.143524,-6.363525 0.987213,-8.226196c3.130615,-1.862549 12.634949,-1.485718 17.296143,-2.105103c4.661072,-0.619385 9.901001,-3.585571 14.779846,-3.201904c4.878723,0.383667 9.645355,4.108276 13.697876,5.468018c4.052673,1.359619 11.801819,2.867798 13.955627,5.009277c2.153748,2.141357 -3.230713,4.600342 -3.765991,6.932861c-0.535278,2.332642 1.676147,8.44751 -1.491669,10.194092z" id="path5582" stroke-dashoffset="0" stroke-miterlimit="4" stroke-linejoin="round" stroke-linecap="round" stroke-width="3" fill="#fcaf3e"/>
    <path d="m375.032318,1547.059326c-2.999664,1.884277 -11.486877,-0.056641 -15.7341,0.892456c-4.247192,0.948975 -11.631165,5.508057 -16.217804,4.970581c-4.586761,-0.537476 -7.219879,-5.119019 -10.971069,-6.676025c-3.75119,-1.557129 -11.059784,-1.758057 -12.790802,-4.071045c-1.731018,-2.312866 2.750183,-6.983032 3.707764,-9.403198c0.957581,-2.420288 -1.979431,-6.726929 0.998047,-8.687744c2.977356,-1.960938 11.710449,-1.495117 16.130829,-2.236328c4.42038,-0.741211 9.595367,-3.959106 14.229156,-3.550659c4.633942,0.408325 8.655579,4.41687 12.423218,5.91687c3.767761,1.5 11.430481,2.824951 13.327332,5.127197c1.896973,2.302246 -3.19931,5.255615 -3.806641,7.730347c-0.607361,2.474731 1.703735,8.103271 -1.295929,9.987549z" id="path5576" stroke-dashoffset="0" stroke-miterlimit="4" stroke-linejoin="round" stroke-linecap="round" stroke-width="3" fill="#ad7fa8"/>
    <path id="path5574" d="m337.049072,1552.775146c-3.671387,2.065186 -10.682373,2.441284 -15.89563,3.165161c-5.213165,0.723999 -12.845947,4.196045 -17.978394,3.3479c-5.132446,-0.848145 -9.808228,-5.026123 -13.54599,-7.016235c-3.737762,-1.990112 -10.521271,-4.012329 -12.103241,-6.737183c-1.58197,-2.724854 3.503784,-6.921387 4.744904,-9.61084c1.241028,-2.689453 -0.189362,-7.94519 3.638885,-9.884155c3.8284,-1.938965 13.264771,-0.746826 18.241394,-1.614014c4.976593,-0.867065 9.797791,-3.876221 14.972717,-3.171997c5.174988,0.704224 9.825378,4.938843 13.546021,7.016235c3.720642,2.077393 13.471527,3.100342 15.158478,5.75647c1.686859,2.656128 -3.563354,7.031372 -4.956451,9.683105c-1.393097,2.651611 -2.151184,7.000488 -5.822693,9.065552z" stroke-dashoffset="0" stroke-miterlimit="4" stroke-linejoin="round" stroke-linecap="round" stroke-width="3" fill="#f57900"/>
    <path id="path5578" d="m318.426514,1439.435791c-2.682617,1.44519 -10.37439,-0.71228 -14.077728,0.058472c-3.703461,0.77063 -11.309967,4.906738 -15.368408,4.427979c-4.058411,-0.47876 -6.105652,-4.278198 -9.516815,-5.47522c-3.411072,-1.197021 -9.461823,-1.033936 -11.048279,-2.821533c-1.586456,-1.787598 2.093689,-5.970703 3.04718,-7.832031c0.953491,-1.861328 -1.815308,-5.265137 0.835968,-6.806274c2.651154,-1.541138 10.699646,-1.22937 14.646729,-1.741821c3.947113,-0.512573 8.384369,-2.966797 12.5159,-2.649292c4.131531,0.317505 8.167908,3.39917 11.599792,4.52417c3.431763,1.125 9.99408,2.372925 11.817932,4.144653c1.823883,1.771851 -2.735809,3.806396 -3.189087,5.73645c-0.453308,1.929932 1.419373,6.98938 -1.263184,8.434448z" stroke-dashoffset="0" stroke-miterlimit="4" stroke-linejoin="round" stroke-linecap="round" stroke-width="3" fill="#fcc916"/>
    <path d="m184.010345,1373.947021c-2.194733,1.196777 -7.610352,0.102173 -10.683868,0.497559c-3.175262,0.408447 -6.602478,3.727173 -9.820068,3.241943c-3.114502,-0.469727 -5.106049,-4.166138 -7.380676,-5.327637c-2.349854,-1.200073 -7.12149,-0.959473 -8.144806,-2.568848c-0.990585,-1.557983 3.240448,-4.082153 4.0905,-5.659058c0.878281,-1.62915 -1.382797,-4.371948 0.984253,-5.533936c2.291214,-1.124878 7.348129,0.438354 10.382492,0.003296c3.134735,-0.449341 6.479706,-3.151001 9.72197,-2.751221c3.138397,0.387085 5.208267,3.15918 7.508713,4.273804c2.376556,1.151611 8.778137,1.491211 9.86615,3.05957c1.05307,1.518188 -5.389023,3.295898 -6.037994,4.890015c-0.670471,1.646851 1.780762,4.638306 -0.486664,5.874512z" id="path5580" stroke-dashoffset="0" stroke-miterlimit="4" stroke-linejoin="round" stroke-linecap="round" stroke-width="3" fill="#ce5c00"/>
    <path id="path5584" d="m377.386627,1509.829956c-3.439545,1.820435 -11.926636,0.155273 -16.743347,0.756836c-4.976166,0.621338 -10.34726,5.669922 -15.389679,4.931763c-4.881042,-0.714478 -8.002014,-6.337646 -11.566711,-8.104614c-3.682648,-1.825562 -11.160583,-1.459473 -12.764282,-3.907837c-1.552429,-2.369995 5.078308,-6.209839 6.410461,-8.608765c1.376343,-2.478271 -2.167053,-6.650635 1.542419,-8.418457c3.59082,-1.711182 11.515808,0.66687 16.271149,0.005127c4.912689,-0.683716 10.154785,-4.793457 15.235962,-4.185303c4.918396,0.588745 8.162231,4.805786 11.767395,6.501465c3.724365,1.751831 13.756561,2.268555 15.46167,4.654419c1.650513,2.309448 -8.445343,5.013794 -9.462372,7.438843c-1.050751,2.505249 2.790741,7.055908 -0.762665,8.936523z" stroke-dashoffset="0" stroke-miterlimit="4" stroke-linejoin="round" stroke-linecap="round" stroke-width="3" fill="#ce5c00"/>
    <path d="m275.660736,1496.505371c-2.634186,1.742554 -9.133759,0.148682 -12.822662,0.724365c-3.81073,0.594849 -7.924133,5.427124 -11.785828,4.720581c-3.737915,-0.68396 -6.128143,-6.066162 -8.858093,-7.757446c-2.820251,-1.747314 -8.546921,-1.396973 -9.775085,-3.740479c-1.188873,-2.268433 3.888992,-5.94397 4.909332,-8.240112c1.05397,-2.37207 -1.659607,-6.365723 1.181152,-8.057861c2.749878,-1.637817 8.819061,0.638306 12.460907,0.004883c3.762146,-0.654297 7.776825,-4.588135 11.668091,-4.005981c3.766663,0.563599 6.250732,4.599976 9.011658,6.223022c2.852417,1.676758 10.535339,2.171387 11.841125,4.455078c1.264008,2.210449 -6.467651,4.799072 -7.246643,7.120239c-0.804565,2.397827 2.137238,6.753662 -0.583954,8.553711z" id="path5588" stroke-dashoffset="0" stroke-miterlimit="4" stroke-linejoin="round" stroke-linecap="round" stroke-width="3" fill="#f57900"/>
    <path id="path5596" d="m217.421249,1462.545532c-2.478195,1.729126 -9.490036,-0.05188 -12.998886,0.81897c-3.50885,0.87085 -9.609039,5.054688 -13.398407,4.561401c-3.789368,-0.493164 -5.96463,-4.69751 -9.06369,-6.126465c-3.099167,-1.428833 -9.137207,-1.613281 -10.567169,-3.73584c-1.430084,-2.122437 2.271942,-6.408081 3.063171,-8.629028c0.791107,-2.221069 -1.635422,-6.173096 0.824463,-7.972534c2.459839,-1.799438 9.674713,-1.371948 13.32663,-2.052124c3.651932,-0.680298 7.927261,-3.633179 11.755493,-3.258423c3.828217,0.374756 7.150726,4.053345 10.263458,5.42981c3.11264,1.376465 9.443344,2.592285 11.010422,4.705078c1.567093,2.112671 -2.643112,4.822876 -3.144867,7.093994c-0.501862,2.270874 1.407562,7.436035 -1.070618,9.165161z" stroke-dashoffset="0" stroke-miterlimit="4" stroke-linejoin="round" stroke-linecap="round" stroke-width="3" fill="#ad7fa8"/>
    <path d="m229.493088,1373.484985c-2.155655,1.178589 -6.272186,1.393311 -9.33313,1.806519c-3.060852,0.413086 -7.54245,2.394775 -10.555923,1.910767c-3.01355,-0.484131 -5.75885,-2.868652 -7.953522,-4.004517c-2.19458,-1.135864 -6.17749,-2.290161 -7.106354,-3.845337c-0.928833,-1.555176 2.057251,-3.950317 2.785919,-5.485352c0.728668,-1.535034 -0.111176,-4.534668 2.136566,-5.641357c2.247833,-1.106689 7.788361,-0.42627 10.710388,-0.921143c2.922028,-0.494995 5.752716,-2.212402 8.791229,-1.810425c3.038422,0.401855 5.768921,2.818726 7.95343,4.004395c2.184616,1.185669 7.909775,1.769531 8.900269,3.285522c0.990494,1.515991 -2.092148,4.013184 -2.91011,5.526611c-0.817963,1.513428 -1.263123,3.995605 -3.418762,5.174316z" id="path5602" stroke-dashoffset="0" stroke-miterlimit="4" stroke-linejoin="round" stroke-linecap="round" stroke-width="3" fill="#f57900"/>
    <path d="m314.680176,1410.21936c-1.981995,1.322998 -7.664886,-0.6521 -10.401154,0.053467c-2.736298,0.705566 -8.356171,4.491943 -11.354706,4.053711c-2.998596,-0.438354 -4.511108,-3.916504 -7.031372,-5.012329c-2.520325,-1.095825 -6.990875,-0.946533 -8.163025,-2.583008c-1.172028,-1.636475 1.546936,-5.46582 2.251404,-7.1698c0.704468,-1.703857 -1.341125,-4.819946 0.617645,-6.230835c1.958771,-1.410767 7.905396,-1.125366 10.821655,-1.594482c2.91629,-0.469238 6.194733,-2.715942 9.247223,-2.425293c3.052551,0.290649 6.03479,3.111694 8.570313,4.141724c2.535614,1.029907 7.384003,2.172241 8.731567,3.794189c1.347534,1.621948 -2.02124,3.484497 -2.356171,5.251343c-0.3349,1.766724 1.048615,6.398438 -0.93338,7.721313z" id="path7636" stroke-dashoffset="0" stroke-miterlimit="4" stroke-linejoin="round" stroke-linecap="round" stroke-width="3" fill="#fcaf3e"/>
   </g>
   <path id="path4397" d="m701.651733,1411.043213a254.285706,77.14286 0 1 1 -508.571411,0a254.285706,77.14286 0 1 1 508.571411,0z" filter="url(#filter4635)" stroke-dashoffset="0" stroke-miterlimit="4" stroke-linejoin="round" stroke-linecap="round" stroke-width="3" fill="#323232" opacity="0.364445"/>
   <path id="path4639" d="m341.181458,146.208237a166.687256,156.481918 0 1 1 -333.374507,0a166.687256,156.481918 0 1 1 333.374507,0z" clip-path="url(#clipPath5671)" stroke-dashoffset="0" stroke-miterlimit="4" stroke-linejoin="round" stroke-linecap="round" stroke-width="8.398963" stroke="#fcaf3e" fill="url(#radialGradient4647)"/>
   <path d="m1916.998657,82.471237c-48.512451,0 -90.276978,11.929924 -108.884521,29.028992c-4.268921,-0.294823 -8.609497,-0.457611 -13.019897,-0.457565c-57.891602,0 -104.884399,26.515854 -104.884399,59.185242c0,28.591507 35.995483,52.464569 83.786011,57.979889c14.848267,30.919434 81.280518,54.263397 160.924805,54.263428c90.54834,0 164.042725,-30.168243 164.042725,-67.343781l-0.11792,-1.082565c29.33374,-9.23204 48.520508,-24.501541 48.520508,-41.774582l-0.421631,-4.386139c-5.100586,-26.509354 -53.967285,-46.620636 -113.325684,-46.640625c-11.480103,-22.433411 -59.405396,-38.772339 -116.619995,-38.772293z" id="path4984" clip-path="url(#clipPath5495)" filter="url(#filter5575)" stroke-dashoffset="0" stroke-miterlimit="4" stroke-linejoin="round" stroke-linecap="round" stroke-width="5" fill="#fdfdfd"/>
   <path id="path5187" d="m895.779907,185.328369c73.37439,0 136.542603,14.997635 164.686157,36.493607c6.456543,-0.370621 13.021729,-0.575287 19.692383,-0.575226c87.560181,0 158.63623,33.334213 158.63623,74.404312c0,35.943604 -54.442749,65.955444 -126.725098,72.889008c-22.457764,38.870148 -122.935669,68.216858 -243.396301,68.216888c-136.953064,0 -248.112,-37.925781 -248.112,-84.660736l0.17804,-1.360962c-44.36676,-11.606018 -73.386658,-30.801941 -73.386658,-52.516632l0.637695,-5.514008c7.714478,-33.326019 81.624817,-58.608795 171.403564,-58.633942c17.363464,-28.201981 89.849915,-48.742355 176.385986,-48.74231z" clip-path="url(#clipPath5381)" filter="url(#filter5445)" stroke-dashoffset="0" stroke-miterlimit="4" stroke-linejoin="round" stroke-linecap="round" stroke-width="5" fill="#fdfdfd"/>
   <g transform="matrix(-0.210623, 0, 0, 0.556237, -341.333, 359.596)" id="g5828" display="inline" fill="#009800" opacity="0.697778">
    <path d="m-3819.208252,2123.108643c-12.955811,-57.300049 -65.418457,-104.148682 -110.755127,-139.777588c58.284424,5.963745 98.620361,69.925049 124.037842,117.933105c2.572754,8.976318 -2.445068,22.197754 -13.282715,21.844482z" id="path5830" stroke-dashoffset="0" stroke-miterlimit="4" stroke-linejoin="round" stroke-linecap="round" stroke-width="5" fill="#009800"/>
    <path d="m-3744.627686,2114.431885c16.922363,-30.073242 -35.47998,-114.768799 -26.255859,-150.65918c29.290039,54.484131 47.240967,92.355713 42.014648,140.912598c-3.416748,5.674561 -10.498779,6.567627 -15.758789,9.746582z" id="path5832" stroke-dashoffset="0" stroke-miterlimit="4" stroke-linejoin="round" stroke-linecap="round" stroke-width="5" fill="#009800"/>
    <path d="m-3670.115479,2112.067139c25.249268,-47.250488 55.258545,-94.920898 108.53833,-113.317871c-29.527588,20.459229 -63.095703,41.023804 -76.157715,76.459961c-6.845215,14.830078 -14.696045,32.876221 -32.380615,36.85791z" id="path5834" stroke-dashoffset="0" stroke-miterlimit="4" stroke-linejoin="round" stroke-linecap="round" stroke-width="5" fill="#009800"/>
    <path d="m-3561.342529,2121.025391c20.26416,-9.159912 40.634033,-61.067139 69.030518,-84.928711c-31.307129,78.413574 -42.603516,86.367432 -69.030518,84.928711z" id="path5836" stroke-dashoffset="0" stroke-miterlimit="4" stroke-linejoin="round" stroke-linecap="round" stroke-width="5" fill="#009800"/>
    <path d="m-3704.401123,2103.49585c12.679932,-15.090332 17.682129,-39.510254 39.270264,-44.824219c-11.711182,15.824219 -17.50708,39.779541 -39.270264,44.824219z" id="path5838" stroke-dashoffset="0" stroke-miterlimit="4" stroke-linejoin="round" stroke-linecap="round" stroke-width="5" fill="#009800"/>
    <path d="m-3783.198242,2078.191406c-10.250244,-21.322998 -21.087646,-42.660645 -36.165527,-61.046631c42.01709,18.971436 55.649658,50.301514 36.165527,61.046631z" id="path5840" stroke-dashoffset="0" stroke-miterlimit="4" stroke-linejoin="round" stroke-linecap="round" stroke-width="5" fill="#009800"/>
    <path d="m-3589.810059,2074.816406c18.253662,-21.315674 39.844482,-40.695313 65.959961,-51.724365c-22.991943,11.943115 -42.077393,44.86792 -65.959961,51.724365z" id="path5842" stroke-dashoffset="0" stroke-miterlimit="4" stroke-linejoin="round" stroke-linecap="round" stroke-width="5" fill="#009800"/>
   </g>
   <g id="g5844" transform="matrix(-0.284483, 0, 0, 0.391411, 808.187, 580.556)" display="inline" fill="#008c00" opacity="0.697778">
    <path id="path5846" d="m-2813.425537,2288.664307c-12.955811,-57.300293 -65.418457,-104.14917 -110.755127,-139.778076c58.284424,5.963623 98.620361,69.925293 124.037842,117.933594c2.572754,8.976318 -2.445068,22.197754 -13.282715,21.844482z" stroke-dashoffset="0" stroke-miterlimit="4" stroke-linejoin="round" stroke-linecap="round" stroke-width="5" fill="#008c00"/>
    <path id="path5848" d="m-2738.844971,2279.987549c16.922363,-30.073486 -35.47998,-114.769287 -26.255859,-150.659668c29.290039,54.484131 47.240967,92.355957 42.014648,140.913086c-3.416748,5.674561 -10.498779,6.567627 -15.758789,9.746582z" stroke-dashoffset="0" stroke-miterlimit="4" stroke-linejoin="round" stroke-linecap="round" stroke-width="5" fill="#008c00"/>
    <path id="path5850" d="m-2664.332764,2277.622803c25.249268,-47.250732 55.258545,-94.921387 108.53833,-113.318359c-29.527588,20.459229 -63.095703,41.023926 -76.157715,76.460205c-6.845215,14.830078 -14.696045,32.876465 -32.380615,36.858154z" stroke-dashoffset="0" stroke-miterlimit="4" stroke-linejoin="round" stroke-linecap="round" stroke-width="5" fill="#008c00"/>
    <path id="path5852" d="m-2555.559814,2286.581055c20.26416,-9.159912 40.634033,-61.067383 69.030518,-84.929199c-31.307129,78.414063 -42.603516,86.36792 -69.030518,84.929199z" stroke-dashoffset="0" stroke-miterlimit="4" stroke-linejoin="round" stroke-linecap="round" stroke-width="5" fill="#008c00"/>
    <path id="path5854" d="m-2698.618408,2269.051514c12.679932,-15.090576 17.682129,-39.510498 39.270264,-44.824463c-11.710938,15.824219 -17.50708,39.779785 -39.270264,44.824463z" stroke-dashoffset="0" stroke-miterlimit="4" stroke-linejoin="round" stroke-linecap="round" stroke-width="5" fill="#008c00"/>
    <path id="path5856" d="m-2777.415527,2243.746826c-10.250244,-21.322998 -21.087646,-42.660889 -36.165527,-61.046875c42.01709,18.971436 55.649414,50.301758 36.165527,61.046875z" stroke-dashoffset="0" stroke-miterlimit="4" stroke-linejoin="round" stroke-linecap="round" stroke-width="5" fill="#008c00"/>
    <path id="path5858" d="m-2584.027344,2240.371826c18.253662,-21.315674 39.844482,-40.695557 65.959961,-51.724609c-22.991943,11.943115 -42.077393,44.868164 -65.959961,51.724609z" stroke-dashoffset="0" stroke-miterlimit="4" stroke-linejoin="round" stroke-linecap="round" stroke-width="5" fill="#008c00"/>
   </g>
   <g transform="matrix(0.326029, 0, 0, 0.480164, 1333.72, 586.943)" id="g5860" display="inline" fill="#008c00" opacity="0.697778">
    <path d="m2557.376709,2185.395752c-12.955811,-57.300293 -65.418457,-104.14917 -110.755127,-139.778076c58.284424,5.963623 98.620361,69.925293 124.037842,117.933594c2.572754,8.976318 -2.445068,22.197754 -13.282715,21.844482z" id="path5862" stroke-dashoffset="0" stroke-miterlimit="4" stroke-linejoin="round" stroke-linecap="round" stroke-width="5" fill="#008c00"/>
    <path d="m2631.957275,2176.718994c16.922363,-30.073486 -35.47998,-114.769287 -26.255859,-150.65979c29.289795,54.484253 47.240967,92.356079 42.014648,140.913208c-3.416748,5.674561 -10.498779,6.567627 -15.758789,9.746582z" id="path5864" stroke-dashoffset="0" stroke-miterlimit="4" stroke-linejoin="round" stroke-linecap="round" stroke-width="5" fill="#008c00"/>
    <path d="m2706.469482,2174.354248c25.249268,-47.250732 55.258545,-94.921387 108.53833,-113.318359c-29.527588,20.459229 -63.095703,41.023926 -76.157715,76.460205c-6.845215,14.830078 -14.696045,32.876465 -32.380615,36.858154z" id="path5866" stroke-dashoffset="0" stroke-miterlimit="4" stroke-linejoin="round" stroke-linecap="round" stroke-width="5" fill="#008c00"/>
    <path d="m2815.242432,2183.3125c20.26416,-9.159912 40.634033,-61.067383 69.030518,-84.929199c-31.307129,78.414063 -42.603516,86.36792 -69.030518,84.929199z" id="path5868" stroke-dashoffset="0" stroke-miterlimit="4" stroke-linejoin="round" stroke-linecap="round" stroke-width="5" fill="#008c00"/>
    <path d="m2672.183838,2165.782959c12.679932,-15.090576 17.682129,-39.510498 39.270264,-44.824463c-11.710938,15.824219 -17.50708,39.779785 -39.270264,44.824463z" id="path5870" stroke-dashoffset="0" stroke-miterlimit="4" stroke-linejoin="round" stroke-linecap="round" stroke-width="5" fill="#008c00"/>
    <path d="m2593.386719,2140.478271c-10.250244,-21.322998 -21.087646,-42.660889 -36.165527,-61.046875c42.01709,18.971436 55.649658,50.301758 36.165527,61.046875z" id="path5872" stroke-dashoffset="0" stroke-miterlimit="4" stroke-linejoin="round" stroke-linecap="round" stroke-width="5" fill="#008c00"/>
    <path d="m2786.775146,2137.103271c18.253418,-21.315674 39.844238,-40.695557 65.959717,-51.724609c-22.991943,11.943115 -42.077393,44.868164 -65.959717,51.724609z" id="path5874" stroke-dashoffset="0" stroke-miterlimit="4" stroke-linejoin="round" stroke-linecap="round" stroke-width="5" fill="#008c00"/>
   </g>
   <g transform="matrix(-0.192158, 0, 0, 0.213906, 1121.46, 743.183)" id="g5876" display="inline" fill="#008c00" opacity="0.697778">
    <path d="m-4191.465332,2752.28833c-12.956055,-57.300293 -65.418457,-104.149414 -110.755371,-139.77832c58.284668,5.963867 98.620605,69.925293 124.038086,117.933594c2.572754,8.976563 -2.445313,22.197754 -13.282715,21.844727z" id="path5878" stroke-dashoffset="0" stroke-miterlimit="4" stroke-linejoin="round" stroke-linecap="round" stroke-width="5" fill="#008c00"/>
    <path d="m-4116.884766,2743.611572c16.922363,-30.07373 -35.47998,-114.769531 -26.255859,-150.659668c29.289551,54.483887 47.240723,92.355957 42.014648,140.913086c-3.416992,5.674316 -10.499023,6.567383 -15.758789,9.746582z" id="path5880" stroke-dashoffset="0" stroke-miterlimit="4" stroke-linejoin="round" stroke-linecap="round" stroke-width="5" fill="#008c00"/>
    <path d="m-4042.372803,2741.246826c25.249023,-47.250977 55.258545,-94.921387 108.53833,-113.318359c-29.527588,20.458984 -63.095703,41.023926 -76.157959,76.459961c-6.845215,14.830078 -14.695801,32.876465 -32.380371,36.858398z" id="path5882" stroke-dashoffset="0" stroke-miterlimit="4" stroke-linejoin="round" stroke-linecap="round" stroke-width="5" fill="#008c00"/>
    <path d="m-3933.599854,2750.204834c20.26416,-9.159668 40.634033,-61.067383 69.030518,-84.929199c-31.307129,78.414063 -42.603516,86.368164 -69.030518,84.929199z" id="path5884" stroke-dashoffset="0" stroke-miterlimit="4" stroke-linejoin="round" stroke-linecap="round" stroke-width="5" fill="#008c00"/>
    <path d="m-4076.658203,2732.675537c12.679688,-15.09082 17.682129,-39.510742 39.269775,-44.824707c-11.710938,15.824219 -17.506836,39.779785 -39.269775,44.824707z" id="path5886" stroke-dashoffset="0" stroke-miterlimit="4" stroke-linejoin="round" stroke-linecap="round" stroke-width="5" fill="#008c00"/>
    <path d="m-4155.455566,2707.37085c-10.25,-21.323242 -21.087402,-42.661133 -36.165527,-61.046875c42.01709,18.971191 55.649414,50.301758 36.165527,61.046875z" id="path5888" stroke-dashoffset="0" stroke-miterlimit="4" stroke-linejoin="round" stroke-linecap="round" stroke-width="5" fill="#008c00"/>
    <path d="m-3962.067383,2703.99585c18.253662,-21.315918 39.844482,-40.695801 65.959961,-51.724609c-22.991943,11.942871 -42.077393,44.868164 -65.959961,51.724609z" id="path5890" stroke-dashoffset="0" stroke-miterlimit="4" stroke-linejoin="round" stroke-linecap="round" stroke-width="5" fill="#008c00"/>
   </g>
   <g id="g5892" transform="matrix(0.169077, 0, 0, 0.16319, 1217.85, 559.511)" display="inline" fill="#008c00" opacity="0.697778">
    <path id="path5894" d="m4880.568359,3070.002686c-12.956055,-57.300293 -65.418457,-104.149414 -110.755371,-139.778076c58.284668,5.963623 98.620605,69.925049 124.038086,117.933594c2.572754,8.976318 -2.445313,22.197754 -13.282715,21.844482z" stroke-dashoffset="0" stroke-miterlimit="4" stroke-linejoin="round" stroke-linecap="round" stroke-width="5" fill="#008c00"/>
    <path id="path5896" d="m4955.148926,3061.325928c16.922363,-30.073486 -35.47998,-114.769531 -26.255859,-150.659668c29.290039,54.483887 47.241211,92.355957 42.014648,140.913086c-3.416992,5.674561 -10.499023,6.567383 -15.758789,9.746582z" stroke-dashoffset="0" stroke-miterlimit="4" stroke-linejoin="round" stroke-linecap="round" stroke-width="5" fill="#008c00"/>
    <path id="path5898" d="m5029.661133,3058.961182c25.249512,-47.250977 55.258789,-94.921387 108.538574,-113.318359c-29.527832,20.459229 -63.095703,41.023926 -76.158203,76.459961c-6.844727,14.830322 -14.695801,32.876465 -32.380371,36.858398z" stroke-dashoffset="0" stroke-miterlimit="4" stroke-linejoin="round" stroke-linecap="round" stroke-width="5" fill="#008c00"/>
    <path id="path5900" d="m5138.434082,3067.919189c20.26416,-9.159668 40.633789,-61.067139 69.030762,-84.928955c-31.307617,78.414063 -42.604004,86.36792 -69.030762,84.928955z" stroke-dashoffset="0" stroke-miterlimit="4" stroke-linejoin="round" stroke-linecap="round" stroke-width="5" fill="#008c00"/>
    <path id="path5902" d="m4995.375488,3050.389893c12.680176,-15.090576 17.682129,-39.510498 39.27002,-44.824463c-11.710938,15.824219 -17.506836,39.779541 -39.27002,44.824463z" stroke-dashoffset="0" stroke-miterlimit="4" stroke-linejoin="round" stroke-linecap="round" stroke-width="5" fill="#008c00"/>
    <path id="path5904" d="m4916.578125,3025.085205c-10.25,-21.322998 -21.087402,-42.661133 -36.165039,-61.046875c42.01709,18.971436 55.649414,50.301758 36.165039,61.046875z" stroke-dashoffset="0" stroke-miterlimit="4" stroke-linejoin="round" stroke-linecap="round" stroke-width="5" fill="#008c00"/>
    <path id="path5906" d="m5109.966797,3021.709961c18.253418,-21.31543 39.844238,-40.695557 65.959961,-51.724365c-22.992188,11.943115 -42.077637,44.868164 -65.959961,51.724365z" stroke-dashoffset="0" stroke-miterlimit="4" stroke-linejoin="round" stroke-linecap="round" stroke-width="5" fill="#008c00"/>
   </g>
   <g id="g5811" transform="matrix(0.38604, 0, 0, 0.492843, -213.2, 373.302)" display="inline" fill="#009800">
    <path id="path5727" d="m2168.32959,2173.678955c-12.955811,-57.300293 -65.418213,-104.149414 -110.755127,-139.77832c58.284668,5.963867 98.620361,69.925293 124.038086,117.933838c2.57251,8.976318 -2.445068,22.19751 -13.282959,21.844482z" stroke-dashoffset="0" stroke-miterlimit="4" stroke-linejoin="round" stroke-linecap="round" stroke-width="5" fill="#009800"/>
    <path id="path5729" d="m2242.9104,2165.002197c16.922119,-30.073486 -35.47998,-114.769531 -26.255859,-150.659912c29.289795,54.484131 47.240967,92.356201 42.014404,140.91333c-3.416504,5.674561 -10.498779,6.567383 -15.758545,9.746582z" stroke-dashoffset="0" stroke-miterlimit="4" stroke-linejoin="round" stroke-linecap="round" stroke-width="5" fill="#009800"/>
    <path id="path5731" d="m2317.422363,2162.637451c25.249512,-47.250732 55.258789,-94.921387 108.538574,-113.318604c-29.527832,20.459229 -63.095703,41.02417 -76.157715,76.460205c-6.845215,14.830322 -14.696289,32.876465 -32.380859,36.858398z" stroke-dashoffset="0" stroke-miterlimit="4" stroke-linejoin="round" stroke-linecap="round" stroke-width="5" fill="#009800"/>
    <path id="path5733" d="m2426.195313,2171.595703c20.26416,-9.159912 40.634277,-61.067383 69.030762,-84.929199c-31.307129,78.413818 -42.603516,86.367676 -69.030762,84.929199z" stroke-dashoffset="0" stroke-miterlimit="4" stroke-linejoin="round" stroke-linecap="round" stroke-width="5" fill="#009800"/>
    <path id="path5735" d="m2283.136719,2154.066162c12.680176,-15.090576 17.682129,-39.510742 39.270508,-44.824463c-11.710938,15.824219 -17.507324,39.779541 -39.270508,44.824463z" stroke-dashoffset="0" stroke-miterlimit="4" stroke-linejoin="round" stroke-linecap="round" stroke-width="5" fill="#009800"/>
    <path id="path5737" d="m2204.3396,2128.761475c-10.25,-21.323242 -21.087646,-42.661133 -36.165283,-61.047119c42.01709,18.97168 55.649414,50.302002 36.165283,61.047119z" stroke-dashoffset="0" stroke-miterlimit="4" stroke-linejoin="round" stroke-linecap="round" stroke-width="5" fill="#009800"/>
    <path id="path5753" d="m2397.728027,2125.386475c18.253418,-21.315674 39.844238,-40.695801 65.959961,-51.724609c-22.992188,11.943115 -42.077637,44.868164 -65.959961,51.724609z" stroke-dashoffset="0" stroke-miterlimit="4" stroke-linejoin="round" stroke-linecap="round" stroke-width="5" fill="#009800"/>
   </g>
   <g id="g7741" transform="matrix(0.137234, 0.0203209, -0.00457729, 0.0689332, 874.477, 574.517)">
    <path d="m7173.879883,4068.746582c-8.371094,4.674805 -29.025879,0.398926 -40.749512,1.943359c-12.109863,1.595703 -25.182129,14.561523 -37.454102,12.665527c-11.879395,-1.834961 -19.475098,-16.275879 -28.150391,-20.813965c-8.962891,-4.6875 -27.162109,-3.748047 -31.06543,-10.035156c-3.77832,-6.086914 12.359863,-15.948486 15.602051,-22.108643c3.349121,-6.364746 -5.274414,-17.080078 3.753418,-21.620117c8.739258,-4.394531 28.026367,1.712891 39.599609,0.013672c11.956543,-1.755859 24.714355,-12.310547 37.080566,-10.748535c11.970215,1.512207 19.865234,12.341797 28.63916,16.696777c9.064453,4.498535 33.47998,5.825684 37.630371,11.952637c4.01709,5.931152 -20.553711,12.876465 -23.029297,19.104248c-2.557129,6.433594 6.791992,18.120117 -1.856445,22.950195z" id="path7685" stroke-dashoffset="0" stroke-miterlimit="4" stroke-linejoin="round" stroke-linecap="round" stroke-width="3" fill="#ce5c00"/>
    <path id="path7689" d="m7284.436035,4002.827393c-8.544922,4.579102 -33.043945,-2.256836 -44.840332,0.18457c-11.796875,2.442383 -36.025391,15.549316 -48.95166,14.032227c-12.927734,-1.51709 -19.44873,-13.556641 -30.313477,-17.350098c-10.865723,-3.792969 -30.13916,-3.275879 -35.192383,-8.940918c-5.052246,-5.665039 6.668945,-18.919922 9.706055,-24.818359c3.037109,-5.898438 -5.78125,-16.68457 2.663086,-21.568359c8.444824,-4.883301 34.081055,-3.895508 46.65332,-5.519531c12.572754,-1.624023 26.706543,-9.400879 39.866211,-8.394531c13.160156,1.005859 26.01709,10.770996 36.948242,14.335938c10.931152,3.56543 31.833496,7.519531 37.643066,13.133789c5.809082,5.614746 -8.713867,12.062012 -10.158203,18.177734c-1.443359,6.115723 4.520508,22.148438 -4.023926,26.727539z" stroke-dashoffset="0" stroke-miterlimit="4" stroke-linejoin="round" stroke-linecap="round" stroke-width="3" fill="#fcc916"/>
    <path id="path7691" d="m6888.056152,4167.094238c-9.59375,6.694336 -36.739258,-0.201172 -50.323242,3.170898c-13.584473,3.371582 -37.200684,19.568359 -51.870605,17.658691c-14.67041,-1.90918 -23.091309,-18.186035 -35.089844,-23.717773c-11.997559,-5.531738 -35.373047,-6.245605 -40.909668,-14.462891c-5.535645,-8.217285 8.796387,-24.808105 11.858887,-33.406738c3.062988,-8.598633 -6.330566,-23.898438 3.192383,-30.864258c9.522949,-6.966797 37.454102,-5.311523 51.592773,-7.945313c14.137695,-2.632813 30.688965,-14.064941 45.509766,-12.614258c14.820801,1.451172 27.683594,15.692383 39.733887,21.020996c12.050293,5.329102 36.559082,10.035645 42.625977,18.215332c6.066406,8.178711 -10.23291,18.671387 -12.175781,27.463379c-1.942383,8.791992 5.449219,28.788086 -4.144531,35.481934z" stroke-dashoffset="0" stroke-miterlimit="4" stroke-linejoin="round" stroke-linecap="round" stroke-width="3" fill="#ad7fa8"/>
    <path d="m7087.216797,4223.461426c-10.758301,5.882324 -31.302734,6.953613 -46.579102,9.015625c-15.276367,2.062012 -37.642578,11.952148 -52.682129,9.536133c-15.039551,-2.416016 -28.740723,-14.316406 -39.693848,-19.985352c-10.952637,-5.668945 -30.830078,-11.429199 -35.46582,-19.19043c-4.635742,-7.761719 10.26709,-19.71582 13.903809,-27.376465c3.636719,-7.660645 -0.554688,-22.631348 10.663086,-28.154785c11.218262,-5.522949 38.869629,-2.126953 53.452637,-4.597168c14.583008,-2.470215 28.709961,-11.041504 43.874512,-9.035645c15.164063,2.006348 28.791016,14.068359 39.693359,19.98584c10.902832,5.91748 39.475586,8.831055 44.418945,16.396973c4.943359,7.565918 -10.441406,20.028809 -14.523438,27.582031c-4.08252,7.552734 -6.303711,19.940918 -17.062012,25.823242z" id="path7687" stroke-dashoffset="0" stroke-miterlimit="4" stroke-linejoin="round" stroke-linecap="round" stroke-width="3" fill="#f57900"/>
    <path id="path7693" d="m6926.279297,4482.766113c-13.694824,8.501953 -47.484863,0.725098 -66.663086,3.53418c-19.811035,2.901855 -41.196289,26.479004 -61.272461,23.031738c-19.432617,-3.336914 -31.858887,-29.597168 -46.051758,-37.849121c-14.661621,-8.525391 -44.434082,-6.815918 -50.818848,-18.25c-6.180664,-11.067871 20.218262,-29.000977 25.522461,-40.203613c5.479492,-11.57373 -8.62793,-31.05957 6.141113,-39.31543c14.295898,-7.991211 45.848633,3.114258 64.781738,0.023926c19.559082,-3.192383 40.430664,-22.385742 60.660645,-19.54541c19.582031,2.749512 32.496582,22.443848 46.850098,30.362793c14.829102,8.180664 54.771484,10.59375 61.560059,21.736328c6.571289,10.785156 -33.624023,23.415039 -37.674316,34.740234c-4.182617,11.699219 11.111328,32.95166 -3.035645,41.734375z" stroke-dashoffset="0" stroke-miterlimit="4" stroke-linejoin="round" stroke-linecap="round" stroke-width="3" fill="#ce5c00"/>
    <path d="m7133.896973,4361.028809c-11.32666,6.693848 -43.375,-0.201172 -59.412598,3.17041c-16.038086,3.371582 -43.92041,19.568848 -61.239746,17.65918c-17.319824,-1.909668 -27.262695,-18.186035 -41.427246,-23.717773c-14.165039,-5.531738 -41.762695,-6.246094 -48.299316,-14.462891c-6.536133,-8.217285 10.385254,-24.808594 14.000977,-33.406738c3.615723,-8.598633 -7.474609,-23.898438 3.768555,-30.864746c11.242676,-6.966309 44.219727,-5.311523 60.911133,-7.944824c16.691895,-2.633301 36.23291,-14.06543 53.730469,-12.614258c17.498047,1.450684 32.684082,15.691895 46.910645,21.020508c14.227539,5.329102 43.162109,10.036133 50.324707,18.215332c7.163086,8.179199 -12.080566,18.671387 -14.374023,27.463379c-2.293457,8.791992 6.433594,28.788086 -4.893555,35.482422z" id="path7695" stroke-dashoffset="0" stroke-miterlimit="4" stroke-linejoin="round" stroke-linecap="round" stroke-width="3" fill="#3465a4"/>
    <path d="m7326.409668,4458.613281c-13.560547,7.400391 -52.443848,-3.647461 -71.165527,0.298828c-18.722168,3.946777 -57.173828,25.126953 -77.689941,22.675781c-20.516602,-2.45166 -30.865723,-21.908203 -48.109863,-28.038086c-17.244141,-6.129883 -47.831543,-5.294434 -55.851563,-14.44873c-8.019531,-9.154297 10.583496,-30.575195 15.404297,-40.106934c4.820313,-9.531738 -9.176758,-26.962402 4.225586,-34.854492c13.402832,-7.891602 54.089355,-6.29541 74.042969,-8.919434c19.953125,-2.624512 42.384766,-15.192383 63.270508,-13.566406c20.885742,1.625488 41.290527,17.406738 58.63916,23.167969c17.348633,5.760742 50.521484,12.150879 59.741699,21.224121c9.220215,9.072754 -13.82959,19.491699 -16.121094,29.375c-2.291504,9.883301 7.174805,35.791992 -6.38623,43.192383z" id="path7697" stroke-dashoffset="0" stroke-miterlimit="4" stroke-linejoin="round" stroke-linecap="round" stroke-width="3" fill="#fcaf3e"/>
    <path d="m7612.272949,4445.197266c-16.25293,10.447266 -56.35498,0.891113 -79.115234,4.342773c-23.512207,3.565918 -48.891602,32.539063 -72.717285,28.302734c-23.063965,-4.100586 -37.810547,-36.370117 -54.654297,-46.51123c-17.400879,-10.476074 -52.734863,-8.375488 -60.312988,-22.42627c-7.334961,-13.600586 23.995605,-35.637695 30.290527,-49.404785c6.50293,-14.222168 -10.239746,-38.166992 7.287598,-48.312012c16.967285,-9.820313 54.414063,3.82666 76.883789,0.028809c23.212891,-3.922852 47.982422,-27.508789 71.991699,-24.018066c23.239746,3.378418 38.567383,27.57959 55.602051,37.311035c17.598633,10.052734 65.001953,13.018555 73.059082,26.710449c7.79834,13.253906 -39.905273,28.773926 -44.710938,42.690918c-4.964844,14.376953 13.185547,40.492676 -3.604004,51.285645z" id="path7699" stroke-dashoffset="0" stroke-miterlimit="4" stroke-linejoin="round" stroke-linecap="round" stroke-width="3" fill="#cc0000"/>
    <path id="path7701" d="m7376.983398,4737.296875c-15.80957,8.716797 -61.140137,-4.296387 -82.966797,0.352051c-21.826172,4.648926 -66.654297,29.597168 -90.572266,26.709473c-23.918945,-2.887695 -35.983887,-25.805176 -56.087402,-33.025391c-20.103516,-7.220215 -55.763672,-6.236816 -65.113281,-17.019531c-9.349121,-10.782715 12.338867,-36.01416 17.958496,-47.241211c5.619141,-11.227051 -10.697754,-31.758789 4.926758,-41.054688c15.624512,-9.295898 63.058594,-7.415039 86.320801,-10.506348c23.262207,-3.091309 49.413086,-17.89502 73.762207,-15.97998c24.349121,1.915039 48.137207,20.503418 68.362305,27.289063c20.225586,6.786133 58.899902,14.313477 69.648926,25c10.749023,10.687012 -16.123047,22.959473 -18.794434,34.601074c-2.671387,11.641113 8.364746,42.158691 -7.445313,50.875488z" stroke-dashoffset="0" stroke-miterlimit="4" stroke-linejoin="round" stroke-linecap="round" stroke-width="3" fill="#fcaf3e"/>
    <path id="path7703" d="m7912.90332,4644.569824c-14.970215,9.403809 -57.328613,-0.282715 -78.524902,4.453613c-21.196777,4.736816 -58.047852,27.489746 -80.938965,24.807129c-22.891113,-2.682129 -36.031738,-25.547363 -54.75293,-33.318359c-18.722168,-7.770508 -55.197266,-8.773926 -63.835449,-20.316895c-8.63916,-11.542969 13.724609,-34.850586 18.504395,-46.929199c4.778809,-12.079102 -9.879395,-33.571777 4.980469,-43.358398c14.859375,-9.786133 58.444336,-7.461426 80.504883,-11.160645c22.061035,-3.699219 47.888184,-19.758789 71.01416,-17.720215c23.125977,2.037598 43.197266,22.043457 62.000977,29.529297c18.803223,7.486328 57.046387,14.098633 66.513184,25.588379c9.466309,11.490234 -15.966797,26.229492 -18.998047,38.580566c-3.031738,12.350586 8.50293,40.440918 -6.467773,49.844727z" stroke-dashoffset="0" stroke-miterlimit="4" stroke-linejoin="round" stroke-linecap="round" stroke-width="3" fill="#ad7fa8"/>
    <path d="m7715.257813,4774.111328c-18.322754,10.306641 -53.312988,12.183594 -79.330566,15.796387c-26.018066,3.613281 -64.111328,20.940918 -89.725586,16.708496c-25.614258,-4.23291 -48.950195,-25.083984 -67.60498,-35.016113c-18.653809,-9.932129 -52.508301,-20.024902 -60.40332,-33.623535c-7.895508,-13.598633 17.486328,-34.542969 23.679688,-47.965332c6.194824,-13.422363 -0.944824,-39.652344 18.161621,-49.329102c19.105957,-9.677246 66.200195,-3.727051 91.037109,-8.054688c24.837402,-4.328125 48.898926,-19.345703 74.725586,-15.831055c25.826172,3.515137 49.035645,24.648438 67.604004,35.016113c18.568848,10.367676 67.233398,15.473145 75.651855,28.729004c8.418945,13.255859 -17.783203,35.092285 -24.73584,48.325684c-6.952637,13.233887 -10.736328,34.937988 -29.05957,45.244141z" id="path7705" stroke-dashoffset="0" stroke-miterlimit="4" stroke-linejoin="round" stroke-linecap="round" stroke-width="3" fill="#f57900"/>
    <path d="m7355.636719,4164.686035c-13.387695,6.999023 -51.774902,-3.450195 -70.257813,0.282715c-18.483398,3.732422 -56.445313,23.764648 -76.699707,21.445801c-20.254395,-2.318359 -30.47168,-20.719727 -47.495605,-26.517578c-17.023926,-5.797363 -47.22168,-5.007324 -55.13916,-13.665527c-7.916992,-8.657715 10.44873,-28.91748 15.20752,-37.932129c4.758789,-9.014648 -9.059082,-25.500488 4.171875,-32.964844c13.231445,-7.463867 53.399414,-5.954102 73.098633,-8.435547c19.69873,-2.482422 41.844238,-14.369141 62.463379,-12.831055c20.619141,1.537109 40.76416,16.462891 57.891113,21.911621c17.127441,5.44873 49.877441,11.492676 58.97998,20.07373c9.102539,8.581055 -13.65332,18.43457 -15.916016,27.782227c-2.262207,9.347656 7.083984,33.851563 -6.304199,40.850586z" id="path7707" stroke-dashoffset="0" stroke-miterlimit="4" stroke-linejoin="round" stroke-linecap="round" stroke-width="3" fill="#fcc916"/>
    <path id="path7709" d="m6834.304688,3974.561768c-10.954102,5.972168 -37.981445,0.509277 -53.320801,2.482422c-15.84668,2.038574 -32.95166,18.601563 -49.009277,16.179688c-15.543945,-2.34375 -25.48291,-20.791504 -36.834961,-26.588867c-11.727539,-5.98877 -35.541016,-4.788086 -40.648438,-12.820313c-4.943848,-7.774902 16.172363,-20.373047 20.414551,-28.242676c4.382813,-8.130371 -6.900879,-21.818848 4.911621,-27.618652c11.435547,-5.61377 36.67334,2.1875 51.816895,0.016602c15.644531,-2.242676 32.338379,-15.725586 48.519531,-13.730469c15.663086,1.931641 25.993164,15.766602 37.474121,21.32959c11.86084,5.74707 43.809082,7.442383 49.23877,15.269531c5.256348,7.57666 -26.894531,16.449219 -30.133301,24.404785c-3.346191,8.21875 8.886719,23.148438 -2.428711,29.318359z" stroke-dashoffset="0" stroke-miterlimit="4" stroke-linejoin="round" stroke-linecap="round" stroke-width="3" fill="#ce5c00"/>
    <path d="m7565.038574,4580.133789c-17.165527,7.762695 -59.522949,0.662598 -83.562012,3.227051c-24.834473,2.649414 -51.639648,24.175781 -76.805664,21.02832c-24.359375,-3.046387 -39.936035,-27.022461 -57.726563,-34.557129c-18.378906,-7.783691 -55.699219,-6.223145 -63.703125,-16.662109c-7.747559,-10.105469 25.344727,-26.478516 31.993164,-36.707031c6.869629,-10.566895 -10.81543,-28.357422 7.698242,-35.895508c17.92041,-7.295898 57.47168,2.84375 81.20459,0.021973c24.517578,-2.915039 50.679688,-20.438965 76.038574,-17.845215c24.546387,2.510254 40.735352,20.491211 58.728027,27.721191c18.587402,7.469727 68.65625,9.672852 77.166016,19.845703c8.236328,9.847656 -42.148926,21.378906 -47.225098,31.71875c-5.243652,10.681641 13.928223,30.085449 -3.806152,38.104004z" id="path7711" stroke-dashoffset="0" stroke-miterlimit="4" stroke-linejoin="round" stroke-linecap="round" stroke-width="3" fill="#ce5c00"/>
    <path id="path7713" d="m7166.447754,4566.014648c-13.145996,8.696289 -45.583984,0.741699 -63.993652,3.615234c-19.019043,2.968262 -39.547363,27.084961 -58.819824,23.559082c-18.655273,-3.413574 -30.583984,-30.274414 -44.208496,-38.71582c-14.075195,-8.720215 -42.65625,-6.97168 -48.785645,-18.66748c-5.933105,-11.321289 19.409668,-29.664551 24.501465,-41.124023c5.260254,-11.838379 -8.282715,-31.77002 5.89502,-40.214844c13.724121,-8.174316 44.013672,3.185547 62.188477,0.024414c18.776855,-3.265625 38.812012,-22.898438 58.232422,-19.992676c18.79834,2.8125 31.196289,22.957031 44.975586,31.057129c14.234863,8.368652 52.579102,10.836914 59.095703,22.233887c6.307617,11.032227 -32.278809,23.951172 -36.166016,35.535156c-4.016113,11.967773 10.666504,33.706055 -2.915039,42.689941z" stroke-dashoffset="0" stroke-miterlimit="4" stroke-linejoin="round" stroke-linecap="round" stroke-width="3" fill="#f57900"/>
    <path d="m7426.818848,4316.405762c-13.744141,8.410645 -52.633301,-0.252441 -72.094238,3.983398c-19.460938,4.236328 -53.294434,24.585449 -74.311035,22.186035c-21.016602,-2.398926 -33.081055,-22.848145 -50.27002,-29.797852c-17.187988,-6.950195 -50.67627,-7.847168 -58.60791,-18.17041c-7.930664,-10.32373 12.601563,-31.168457 16.989258,-41.971191c4.388184,-10.802246 -9.069824,-30.024414 4.573242,-38.776855c13.642578,-8.752441 53.657715,-6.67334 73.912598,-9.981445c20.254395,-3.308594 43.96582,-17.671387 65.19873,-15.848145c21.232422,1.822754 39.659668,19.714355 56.923828,26.409668c17.263184,6.694824 52.374512,12.608887 61.065918,22.884766c8.691406,10.275879 -14.65918,23.458008 -17.442383,34.503906c-2.783203,11.045898 7.806641,36.168457 -5.937988,44.578125z" id="path7715" stroke-dashoffset="0" stroke-miterlimit="4" stroke-linejoin="round" stroke-linecap="round" stroke-width="3" fill="#ad7fa8"/>
    <path id="path7717" d="m6948.159668,4065.189453c-10.758301,5.882324 -31.302734,6.953613 -46.579102,9.016113c-15.276367,2.061523 -37.642578,11.95166 -52.682129,9.536133c-15.039551,-2.416016 -28.740723,-14.316895 -39.693848,-19.985352c-10.952637,-5.668945 -30.830078,-11.429688 -35.46582,-19.190918c-4.635742,-7.761475 10.26709,-19.715576 13.903809,-27.376709c3.636719,-7.660645 -0.554688,-22.631348 10.663086,-28.154297c11.218262,-5.523438 38.869629,-2.126953 53.452637,-4.597656c14.583008,-2.469727 28.709961,-11.041016 43.874512,-9.035156c15.164063,2.005859 28.791016,14.068359 39.693359,19.985352c10.902832,5.91748 39.475586,8.831055 44.418945,16.397461c4.943359,7.56543 -10.441406,20.02832 -14.523438,27.582031c-4.08252,7.552979 -6.303711,19.940674 -17.062012,25.822998z" stroke-dashoffset="0" stroke-miterlimit="4" stroke-linejoin="round" stroke-linecap="round" stroke-width="3" fill="#f57900"/>
    <path id="path7719" d="m6916.716797,4288.928223c-9.891602,6.602051 -38.253906,-3.254395 -51.90918,0.266602c-13.65625,3.520996 -41.704102,22.417969 -56.668945,20.230469c-14.964844,-2.187012 -22.513672,-19.545898 -35.091797,-25.014648c-12.577637,-5.46875 -34.88916,-4.723633 -40.73877,-12.891113c-5.849609,-8.16748 7.720215,-27.278809 11.23584,-35.782715c3.516113,-8.503906 -6.693359,-24.055176 3.08252,-31.096191c9.775879,-7.041016 39.453613,-5.616699 54.007813,-7.958008c14.554199,-2.341309 30.916016,-13.554199 46.150391,-12.104004c15.234375,1.450684 30.118164,15.530273 42.772461,20.669922c12.654297,5.140137 36.851563,10.841309 43.577148,18.936035c6.725098,8.094727 -10.087891,17.390625 -11.759766,26.208008c-1.671387,8.817871 5.233887,31.933105 -4.657715,38.535645z" stroke-dashoffset="0" stroke-miterlimit="4" stroke-linejoin="round" stroke-linecap="round" stroke-width="3" fill="#fcaf3e"/>
   </g>
   <path d="m2270.573242,978.87561c1.522949,0.316345 1.903809,1.042419 3.182617,2.128357c1.664063,1.863708 5.03418,7.445129 4.655029,8.357666c-0.502686,1.644104 -4.736816,-7.671692 -7.837646,-10.486023zm28.590332,4.063965c-3.614258,6.716248 -3.954346,7.219482 -6.773438,7.12207c0.598633,-1.23938 2.317383,-2.248657 3.523193,-3.42627c1.285645,-1.255371 1.984131,-3.602905 3.250244,-3.695801zm-12.70459,0.244873c4.11377,4.388306 4.552979,5.968811 3.860107,6.462891c-1.266846,0.477112 -0.990234,-0.768005 -3.860107,-6.462891zm-7.696045,0.941101c1.012695,-0.168396 1.750488,1.351501 2.153076,2.594666c1.027832,3.174316 1.039551,2.716187 0.346436,2.985229c-0.955078,0.37085 -0.948975,-2.867981 -2.499512,-5.579895zm-6.811768,-0.291504c1.059814,0.030945 1.611328,1.316833 2.354492,2.503723c0.746582,2.263184 2.919189,3.669128 1.386963,3.755005c-1.523682,0.085571 -2.577637,-3.57251 -3.741455,-6.258728zm11.36084,0.870544c3.342773,3.63916 4.057861,4.755371 2.715332,4.90564c-0.865723,0.096802 -0.934082,-0.792358 -1.922363,-2.287598c-0.636719,-0.963013 -1.43042,-1.806885 -0.792969,-2.618042z" id="path7788" stroke-dashoffset="0" stroke-miterlimit="4" stroke-linejoin="round" stroke-linecap="round" stroke-width="3" fill="#1e9e00" opacity="0.698"/>
  </g>
  <use id="svg_80" xlink:href="#svg_79" transform="matrix(1.0589, 0, 0, 1.14027, -963.64, -488.857)" y="1052.418106" x="2599.92981"/>
 </g>
</svg>